<?xml version="1.0" standalone="no"?>
<!DOCTYPE svg PUBLIC "-//W3C//DTD SVG 20010904//EN"
 "http://www.w3.org/TR/2001/REC-SVG-20010904/DTD/svg10.dtd">
<svg version="1.0" xmlns="http://www.w3.org/2000/svg"
 width="96.000000pt" height="96.000000pt" viewBox="0 0 96.000000 96.000000"
 preserveAspectRatio="xMidYMid meet">

<g transform="translate(0.000000,96.000000) scale(0.100000,-0.100000)"
fill="#000000" stroke="none">
<path d="M0 800 c0 -103 4 -160 10 -160 6 0 15 -10 20 -22 5 -14 9 -17 9 -8 1
9 -4 21 -11 28 -17 17 5 37 44 39 20 0 24 -1 11 -4 -16 -3 -23 -11 -22 -26 1
-17 2 -18 6 -4 2 9 11 17 18 17 8 0 18 7 23 16 8 14 10 13 15 -5 3 -11 1 -24
-4 -27 -5 -3 -9 -13 -9 -22 1 -16 1 -16 11 1 12 21 29 22 29 2 0 -29 -75 -48
-127 -31 l-22 7 -1 -266 0 -266 63 1 c34 0 70 -1 80 -2 19 -1 23 -33 6 -44
-32 -19 50 -24 413 -23 l398 1 0 24 c0 27 -12 31 -30 9 -7 -8 -17 -15 -23 -15
-7 0 -7 4 1 12 15 15 15 25 0 31 -7 2 -5 3 5 1 15 -2 18 2 12 19 -4 12 -14 50
-22 84 l-15 62 -226 0 c-173 0 -227 3 -234 13 -5 9 -8 4 -8 -14 0 -16 -4 -28
-10 -28 -5 0 -10 10 -10 23 0 12 -5 29 -10 37 -6 10 -8 4 -4 -21 5 -32 -16
-99 -31 -99 -2 0 -15 11 -29 25 -14 14 -31 25 -38 25 -9 0 -9 -3 2 -10 12 -7
12 -12 2 -22 -9 -9 -15 -8 -25 5 -12 17 -14 17 -45 1 -18 -9 -35 -14 -38 -12
-8 8 21 37 41 40 25 4 35 17 35 44 0 12 7 27 15 34 8 7 13 16 10 20 -3 5 0 10
7 12 22 8 -19 58 -48 58 -31 0 -41 -23 -23 -58 7 -15 14 -30 16 -33 5 -12 -32
-5 -45 8 -8 7 -18 11 -23 8 -5 -4 -9 1 -9 10 0 10 5 13 12 9 7 -4 8 -3 4 4
-10 16 -38 15 -34 0 4 -26 -13 -86 -26 -91 -9 -4 -12 -14 -9 -26 3 -12 1 -21
-5 -21 -23 0 -33 161 -12 201 6 10 32 25 58 33 47 14 47 14 17 21 -16 4 -35 8
-42 10 -6 2 -17 -3 -23 -11 -19 -22 -40 -17 -40 11 0 14 -7 28 -16 32 -12 4
-10 9 13 24 15 11 37 19 48 18 11 0 14 -3 7 -6 -16 -6 -15 -28 2 -42 12 -10
13 -8 9 10 -5 19 -3 21 25 17 17 -2 29 -1 26 4 -3 4 2 5 10 2 9 -3 13 -11 9
-18 -19 -30 -11 -42 21 -30 12 5 13 10 5 25 -10 20 -9 22 14 13 9 -3 13 -13
10 -25 -8 -31 20 -23 39 12 14 24 23 30 45 27 16 -2 27 -8 25 -16 -1 -8 5 -11
22 -6 13 3 27 1 30 -4 3 -6 15 -8 26 -5 11 3 20 0 20 -6 0 -6 -4 -11 -9 -11
-5 0 -11 -9 -14 -20 -5 -18 0 -20 51 -20 69 0 96 13 69 34 -13 10 -15 21 -11
45 8 37 24 42 24 7 0 -27 10 -38 27 -28 17 12 -13 131 -40 161 -14 14 -29 41
-35 59 -6 18 -24 52 -40 75 -15 23 -31 50 -35 60 -9 23 -27 22 -27 -2 0 -11
-5 -23 -12 -27 -8 -5 -9 -2 -5 9 7 18 -8 24 -18 7 -8 -13 -35 -13 -35 0 0 6
11 16 25 22 22 10 23 13 11 27 -8 9 -15 20 -14 24 0 5 -4 12 -8 15 -4 4 -3 0
1 -8 8 -13 7 -13 -8 -1 -18 14 -24 61 -8 61 5 0 11 -9 14 -20 4 -17 9 -19 29
-11 33 12 138 -7 138 -25 0 -8 -6 -14 -12 -14 -8 0 -7 -4 3 -10 12 -7 47 -7
57 0 18 16 50 -4 65 -40 8 -21 11 -22 14 -7 4 14 8 15 18 7 11 -9 11 -14 -2
-30 -13 -15 -20 -16 -39 -8 -13 6 -24 15 -24 20 0 4 -4 8 -9 8 -5 0 -7 -13 -5
-30 5 -32 -12 -42 -23 -14 -3 9 -12 13 -22 8 -9 -4 -26 -6 -39 -5 -23 1 -23
-6 1 -37 7 -9 13 -9 24 -1 7 7 17 9 20 5 4 -4 2 -10 -5 -15 -9 -5 -9 -17 2
-52 l14 -44 1 38 c1 33 4 37 27 37 14 0 32 -7 40 -15 21 -20 29 -19 42 8 6 12
11 16 11 10 1 -9 8 -10 28 -2 24 9 30 7 45 -11 10 -12 18 -39 18 -59 l1 -36
14 25 c13 22 14 23 15 5 0 -16 8 -21 40 -23 30 -2 40 1 40 13 0 13 -3 13 -21
3 -17 -11 -22 -10 -35 7 -20 26 -33 80 -27 105 7 25 59 55 68 40 4 -6 10 -8
15 -5 11 7 38 -36 34 -57 -1 -10 2 -18 7 -18 6 0 7 -4 4 -10 -3 -5 -1 -10 5
-10 6 0 9 -4 6 -9 -3 -5 1 -14 9 -21 13 -11 15 7 15 149 l0 161 -480 0 -480 0
0 -160z m554 82 c3 -5 -1 -9 -9 -9 -8 0 -12 4 -9 9 3 4 7 8 9 8 2 0 6 -4 9 -8z
m-374 -82 c0 -5 -5 -10 -11 -10 -5 0 -7 5 -4 10 3 6 8 10 11 10 2 0 4 -4 4
-10z m38 -8 c2 -7 0 -12 -5 -10 -4 1 -18 -3 -30 -10 -27 -15 -29 -9 -5 17 19
21 33 22 40 3z m-158 -11 c0 -5 -7 -11 -14 -14 -10 -4 -13 -1 -9 9 6 15 23 19
23 5z m41 0 c-11 -7 -10 -10 5 -14 13 -3 10 -5 -10 -6 -24 -1 -27 1 -16 14 7
8 18 15 24 15 6 0 5 -4 -3 -9z m129 -37 c0 -19 14 -18 34 5 11 12 25 16 41 13
29 -5 31 -14 10 -32 -21 -17 -19 -34 3 -25 30 12 52 14 52 5 0 -5 -4 -12 -10
-15 -5 -3 -10 0 -10 7 0 10 -3 9 -10 -2 -6 -9 -5 -17 1 -21 19 -12 -43 -50
-75 -47 -28 3 -31 -1 -42 -37 -6 -22 -16 -39 -21 -38 -5 1 -10 -8 -10 -19 -3
-29 -25 -41 -43 -22 -11 11 -12 19 -4 32 6 9 10 25 8 35 -1 9 2 15 6 12 10 -6
30 26 30 46 0 9 -3 9 -14 0 -11 -9 -15 -8 -20 4 -4 11 3 19 21 26 20 7 24 12
14 18 -10 7 -11 13 -2 30 7 11 9 21 6 21 -3 0 0 6 7 14 15 16 28 11 28 -10z
m160 11 c0 -8 -7 -15 -15 -15 -8 0 -15 7 -15 15 0 8 7 15 15 15 8 0 15 -7 15
-15z m280 5 c0 -5 -2 -10 -4 -10 -3 0 -8 5 -11 10 -3 6 -1 10 4 10 6 0 11 -4
11 -10z m-562 -34 c-15 -35 -34 -39 -58 -14 -29 32 -25 38 25 38 44 0 44 0 33
-24z m335 -2 c-3 -8 -8 -13 -10 -10 -5 5 -33 -18 -33 -27 0 -2 10 -3 21 -3 17
1 23 -6 26 -26 4 -32 -11 -36 -39 -11 -23 21 -24 79 -1 91 22 13 43 4 36 -14z
m-273 -4 c0 -5 -5 -12 -12 -16 -7 -4 -8 -3 -4 4 4 7 2 12 -3 12 -6 0 -11 -4
-11 -8 0 -5 -6 -9 -14 -9 -8 0 -12 5 -10 12 5 13 54 19 54 5z m183 -101 c4
-16 3 -18 -9 -8 -16 13 -19 29 -5 29 5 0 11 -9 14 -21z m-88 -59 c3 -5 1 -10
-4 -10 -6 0 -11 5 -11 10 0 6 2 10 4 10 3 0 8 -4 11 -10z m232 -121 c-14 -8
-22 -8 -30 0 -8 8 -3 11 19 11 25 -1 27 -2 11 -11z m-232 -109 c0 -8 -8 -16
-19 -18 -11 -3 -16 0 -12 7 4 6 2 11 -3 11 -6 0 -11 5 -11 11 0 6 10 9 23 7
12 -2 22 -10 22 -18z m-35 -104 c0 -3 -4 -8 -10 -11 -5 -3 -10 -1 -10 4 0 6 5
11 10 11 6 0 10 -2 10 -4z m-46 -41 c-4 -8 -8 -15 -10 -15 -2 0 -4 7 -4 15 0
8 4 15 10 15 5 0 7 -7 4 -15z m-14 -35 c0 -5 -5 -10 -11 -10 -5 0 -7 5 -4 10
3 6 8 10 11 10 2 0 4 -4 4 -10z m289 -52 c-12 -10 -26 -18 -33 -18 -6 0 -4 5
4 11 12 9 10 10 -8 6 -26 -6 -52 1 -52 13 0 5 25 7 55 7 55 -2 55 -2 34 -19z
m-372 6 c-3 -3 -12 -4 -19 -1 -8 3 -5 6 6 6 11 1 17 -2 13 -5z m646 -1 c9 -8
-12 -33 -28 -33 -7 0 -15 9 -18 20 -4 16 0 20 17 20 13 0 26 -3 29 -7z m97 1
c0 -8 -19 -13 -24 -6 -3 5 1 9 9 9 8 0 15 -2 15 -3z m80 -4 c0 -5 -17 -10 -37
-9 -34 1 -35 2 -13 9 36 11 50 11 50 0z m-437 -62 c-2 -5 -12 -8 -22 -8 -9 0
-22 -5 -28 -11 -8 -8 -19 -6 -39 5 l-29 16 28 -6 c16 -4 27 -2 27 4 0 6 15 10
34 9 19 -1 32 -5 29 -9z m-133 -18 c0 -5 -4 -10 -10 -10 -5 0 -10 5 -10 10 0
6 5 10 10 10 6 0 10 -4 10 -10z m133 -7 c-7 -2 -19 -2 -25 0 -7 3 -2 5 12 5
14 0 19 -2 13 -5z"/>
<path d="M270 735 c0 -8 2 -15 4 -15 2 0 6 7 10 15 3 8 1 15 -4 15 -6 0 -10
-7 -10 -15z"/>
<path d="M207 712 c-5 -7 9 -52 17 -52 2 0 6 8 8 18 5 18 -17 48 -25 34z"/>
<path d="M200 615 c0 -8 2 -15 4 -15 2 0 6 7 10 15 3 8 1 15 -4 15 -6 0 -10
-7 -10 -15z"/>
<path d="M460 879 c0 -5 5 -7 10 -4 6 3 10 8 10 11 0 2 -4 4 -10 4 -5 0 -10
-5 -10 -11z"/>
<path d="M890 687 c0 -15 4 -27 9 -27 17 0 19 15 5 35 -13 18 -14 18 -14 -8z"/>
<path d="M830 655 c0 -8 7 -15 15 -15 8 0 15 7 15 15 0 8 -7 15 -15 15 -8 0
-15 -7 -15 -15z"/>
<path d="M777 593 c-3 -5 -1 -16 2 -26 6 -17 8 -17 20 -3 7 8 10 20 6 26 -7
12 -22 13 -28 3z"/>
<path d="M611 570 c0 -8 4 -24 8 -34 6 -17 8 -17 14 -4 3 9 -1 24 -8 35 -11
14 -14 15 -14 3z"/>
<path d="M782 531 l-17 -30 -11 27 c-9 19 -13 22 -13 10 -1 -10 -9 -19 -18
-20 -10 0 -22 -2 -28 -3 -69 -17 -74 -40 -10 -49 25 -4 45 -11 45 -15 0 -4 6
-8 13 -8 6 -1 26 -7 44 -14 24 -10 37 -10 55 -2 l23 12 -22 0 c-16 1 -21 6
-17 16 4 8 2 15 -4 15 -5 0 -13 8 -17 18 -5 14 -4 15 6 5 7 -7 23 -13 36 -13
13 0 23 -3 23 -7 0 -14 49 -31 70 -26 12 3 20 14 20 27 0 19 -5 22 -28 18 -18
-2 -33 3 -45 16 -11 11 -26 18 -37 15 -12 -3 -20 2 -25 16 -9 29 -23 26 -43
-8z"/>
<path d="M630 446 c0 -2 7 -7 16 -10 8 -3 12 -2 9 4 -6 10 -25 14 -25 6z"/>
<path d="M887 370 c11 -5 29 -22 39 -39 24 -41 34 -39 34 5 0 31 -2 35 -15 24
-12 -10 -15 -10 -15 4 0 12 -9 16 -32 15 -29 0 -30 -1 -11 -9z"/>
<path d="M304 355 c3 -9 6 -25 6 -36 0 -10 7 -19 15 -19 8 0 15 -6 15 -14 0
-8 7 -17 16 -20 14 -5 15 -4 4 9 -7 8 -9 15 -4 15 5 0 3 4 -5 9 -10 7 -11 13
-2 30 7 11 16 21 22 21 6 0 8 4 5 8 -2 4 -21 9 -42 10 -30 2 -35 0 -30 -13z
m39 -11 c-6 -18 -19 -18 -26 -1 -3 7 3 13 14 14 12 1 16 -3 12 -13z"/>
<path d="M292 258 c-18 -18 -14 -30 8 -23 16 5 20 2 20 -18 0 -28 34 -64 45
-48 3 6 1 11 -5 11 -6 0 -8 10 -4 25 5 19 2 25 -11 25 -9 0 -13 5 -9 11 3 6 0
15 -7 20 -18 12 -23 11 -37 -3z"/>
<path d="M953 150 c0 -25 2 -35 4 -22 2 12 2 32 0 45 -2 12 -4 2 -4 -23z"/>
<path d="M95 10 c-18 -8 -17 -9 8 -9 16 -1 26 3 22 9 -3 6 -7 10 -8 9 -1 0
-11 -4 -22 -9z"/>
</g>
</svg>
